<svg
              xmlns="http://www.w3.org/2000/svg"
              width="32"
              height="32"
              viewBox="0 0 32 32"
              fill="none"
            >
              <path
                d="M21.9464 21.2292C22.4129 21.4584 22.8335 21.7397 23.2081 22.073C23.5828 22.4063 23.9009 22.7778 24.1624 23.1875C24.4239 23.5973 24.6289 24.0417 24.7773 24.5209C24.9258 25 25 25.4931 25 26H23.6429C23.6429 25.4514 23.5368 24.934 23.3248 24.4479C23.1127 23.9618 22.8229 23.5382 22.4554 23.1771C22.0878 22.816 21.6531 22.5278 21.1512 22.3126C20.6494 22.0973 20.1228 21.9931 19.5714 22.0001C19.006 22.0001 18.4794 22.1042 17.9916 22.3126C17.5039 22.5209 17.0727 22.8056 16.6981 23.1667C16.3235 23.5278 16.0301 23.9549 15.8181 24.4479C15.606 24.941 15.5 25.4583 15.5 26H14.1429C14.1429 25.4931 14.2135 25 14.3549 24.5209C14.4963 24.0417 14.7013 23.5973 14.9699 23.1875C15.2385 22.7778 15.5601 22.4063 15.9347 22.073C16.3093 21.7397 16.7299 21.4584 17.1964 21.2292C16.6663 20.8543 16.2528 20.3855 15.9559 19.823C15.659 19.2605 15.5071 18.6529 15.5 18.0001C15.5 17.4515 15.394 16.9342 15.1819 16.4481C14.9699 15.962 14.6801 15.5384 14.3125 15.1773C13.9449 14.8162 13.5102 14.528 13.0084 14.3127C12.5065 14.0974 11.9799 13.9933 11.4286 14.0002C10.8631 14.0002 10.3365 14.1044 9.84877 14.3127C9.36105 14.521 8.92987 14.8057 8.55525 15.1668C8.18062 15.5279 7.88728 15.955 7.67522 16.4481C7.46317 16.9411 7.35714 17.4585 7.35714 18.0001H6C6 17.4932 6.07068 17.0001 6.21205 16.521C6.35342 16.0418 6.55841 15.5974 6.82701 15.1877C7.09561 14.778 7.41722 14.4064 7.79185 14.0731C8.16648 13.7398 8.58705 13.4585 9.05357 13.2294C8.52344 12.8544 8.10993 12.3856 7.81306 11.8231C7.51618 11.2607 7.36421 10.653 7.35714 10.0003C7.35714 9.45166 7.46317 8.93431 7.67522 8.4482C7.88728 7.9621 8.17708 7.53849 8.54464 7.17739C8.9122 6.81628 9.34338 6.52809 9.83817 6.31282C10.333 6.09755 10.8631 5.99338 11.4286 6.00033C11.987 6.00033 12.5136 6.10449 13.0084 6.31282C13.5032 6.52115 13.9343 6.80587 14.3019 7.16697C14.6695 7.52808 14.9628 7.95515 15.1819 8.4482C15.401 8.94125 15.5071 9.4586 15.5 10.0003C15.5 10.653 15.3516 11.2607 15.0547 11.8231C14.7578 12.3856 14.3408 12.8544 13.8036 13.2294C14.3408 13.4933 14.8214 13.8335 15.2455 14.2502C15.6696 14.6669 16.016 15.1391 16.2846 15.6668C16.6663 15.146 17.1434 14.7398 17.716 14.4481C18.2885 14.1564 18.907 14.0071 19.5714 14.0002C20.1298 14.0002 20.6564 14.1044 21.1512 14.3127C21.646 14.521 22.0772 14.8057 22.4448 15.1668C22.8123 15.5279 23.1057 15.955 23.3248 16.4481C23.5439 16.9411 23.6499 17.4585 23.6429 18.0001C23.6429 18.6529 23.4944 19.2605 23.1975 19.823C22.9007 20.3855 22.4836 20.8543 21.9464 21.2292ZM11.4286 12.6669C11.8032 12.6669 12.1531 12.5974 12.4782 12.4586C12.8034 12.3197 13.0932 12.1287 13.3477 11.8856C13.6021 11.6426 13.7965 11.3613 13.9308 11.0419C14.0651 10.7225 14.1358 10.3753 14.1429 10.0003C14.1429 9.63221 14.0722 9.28847 13.9308 8.96903C13.7894 8.64959 13.5951 8.36487 13.3477 8.11487C13.1003 7.86488 12.814 7.67391 12.4888 7.54197C12.1637 7.41002 11.8103 7.34058 11.4286 7.33364C11.0539 7.33364 10.7041 7.40308 10.3789 7.54197C10.0538 7.68085 9.76395 7.87182 9.50949 8.11487C9.25502 8.35793 9.06064 8.63917 8.92634 8.95861C8.79204 9.27805 8.72135 9.62527 8.71429 10.0003C8.71429 10.3683 8.78497 10.7121 8.92634 11.0315C9.06771 11.3509 9.26209 11.6357 9.50949 11.8856C9.75688 12.1356 10.0432 12.3266 10.3683 12.4586C10.6935 12.5905 11.0469 12.6599 11.4286 12.6669ZM19.5714 20.6668C19.9461 20.6668 20.2959 20.5973 20.6211 20.4584C20.9462 20.3195 21.236 20.1286 21.4905 19.8855C21.745 19.6425 21.9394 19.3612 22.0737 19.0418C22.208 18.7223 22.2786 18.3751 22.2857 18.0001C22.2857 17.6321 22.215 17.2883 22.0737 16.9689C21.9323 16.6495 21.7379 16.3647 21.4905 16.1147C21.2431 15.8647 20.9568 15.6738 20.6317 15.5418C20.3065 15.4099 19.9531 15.3405 19.5714 15.3335C19.1968 15.3335 18.8469 15.403 18.5218 15.5418C18.1966 15.6807 17.9068 15.8717 17.6523 16.1147C17.3979 16.3578 17.2035 16.639 17.0692 16.9585C16.9349 17.2779 16.8642 17.6251 16.8571 18.0001C16.8571 18.3682 16.9278 18.7119 17.0692 19.0314C17.2106 19.3508 17.4049 19.6355 17.6523 19.8855C17.8997 20.1355 18.186 20.3265 18.5112 20.4584C18.8363 20.5904 19.1897 20.6598 19.5714 20.6668ZM20.9286 8.66695H16.8571V7.33364H22.2857V12.6669H20.9286V8.66695Z"
                fill="#111111"
              />
            </svg>